# xmcd
#
# Track frame offsets:
#	150
#	12563
#	25943
#	39355
#	50000
#	65493
#	78018
#	90800
#	101535
#	117280
#	129578
#
# Disc length: 1914 seconds
#
# Revision: 1
# Processed by: cddbd v1.4PL0 Copyright (c) Steve Scherf et al.
# Submitted via: audiograbber 1.81.03
#
DISCID=8007780b
DTITLE=Percy Sledge - Warm And Tender Love
DYEAR=1994
DGENRE=Soul
TTITLE0=My Adorable One
TTITLE1=Take Time To Know Her
TTITLE2=My Special Prayer
TTITLE3=Thief In The Night
TTITLE4=Out Of Left Field
TTITLE5=It Tears Me Up
TTITLE6=When A Man Loves A Woman
TTITLE7=You´re Pouring Water On A Drowning Man
TTITLE8=Just Out Of Reach
TTITLE9=Cover Me
TTITLE10=Warm And Tender Love
EXTD=
EXTT0=
EXTT1=
EXTT2=
EXTT3=
EXTT4=
EXTT5=
EXTT6=
EXTT7=
EXTT8=
EXTT9=
EXTT10=
PLAYORDER=
